<svg width="14" height="14" viewBox="0 0 14 14" fill="none" xmlns="http://www.w3.org/2000/svg">
<g clip-path="url(#clip0_141_152)">
<path d="M14 12.0612C13.9279 12.2568 13.7731 12.3491 13.5868 12.4226C12.3068 12.9295 11.0281 13.4401 9.75076 13.9545L9.63798 14C9.6226 13.8821 9.61884 8.12869 9.6349 7.94032C9.72616 8.04288 9.80852 8.13758 9.89021 8.23125C10.4975 8.92799 11.3875 8.92286 11.9911 8.22441C12.7061 7.39743 13.3814 6.54138 13.9467 5.60294C13.959 5.58243 13.9645 5.55029 13.9997 5.55166L14 12.0612Z" fill="#E05327"/>
<path d="M4.37569 3.49735C4.37569 3.56128 4.37569 3.60675 4.37569 3.65222C4.37569 6.54172 4.37649 9.43122 4.37809 12.3207C4.37809 12.4253 4.35382 12.478 4.25095 12.5187C3.04996 12.9935 1.85137 13.4759 0.65175 13.9525C0.365004 14.0667 0.110384 13.96 0.0194722 13.6957C0.00432322 13.6434 -0.00180325 13.5888 0.00135734 13.5344C0.00135734 10.8865 0.00135734 8.23843 0.00135734 5.59029C0.00135734 5.36773 0.0970556 5.21218 0.298359 5.13116C1.64973 4.5869 3.00416 4.04606 4.37569 3.49735Z" fill="#E05327"/>
<path d="M8.75036 13.8646L7.4653 13.3498C6.75897 13.0667 6.05265 12.7844 5.34632 12.5029C5.27796 12.4759 5.24994 12.4479 5.24994 12.3689C5.25245 9.43817 5.25324 6.5073 5.25233 3.57632C5.25233 3.55478 5.25472 3.5329 5.25677 3.4994C5.77729 3.7076 6.28209 3.93153 6.80432 4.11067C7.13413 4.22417 7.3368 4.39955 7.47487 4.73322C7.77119 5.45115 8.2172 6.08532 8.67107 6.71197C8.72614 6.78313 8.75542 6.87088 8.75412 6.96086C8.75139 9.21242 8.75071 11.4641 8.75207 13.7159L8.75036 13.8646Z" fill="#E05327"/>
<path d="M13.9474 2.31994C13.8613 1.97967 13.7191 1.65615 13.5266 1.3627C13.2196 0.891581 12.7885 0.51442 12.2809 0.272815C11.9582 0.117263 11.625 0.012992 11.2658 -0.000682831H10.6096C10.6035 0.0205132 10.5867 0.0232482 10.5679 0.0249576C10.3017 0.0537782 10.0407 0.119238 9.79243 0.219483C8.71927 0.62631 7.91269 1.76406 7.87578 2.91138C7.85698 3.48128 8.04974 3.99136 8.29923 4.48399C8.90417 5.67747 9.73023 6.71505 10.6007 7.7205C10.6481 7.77624 10.7082 7.81965 10.7761 7.84699C10.9668 7.92288 11.1435 7.86989 11.3075 7.68289C11.7801 7.14688 12.225 6.58708 12.6404 6.00567C13.122 5.32671 13.5721 4.63032 13.8489 3.83786C13.9094 3.66487 13.9515 3.48573 14.0007 3.30898V2.73464C13.9662 2.59891 13.9826 2.45669 13.9474 2.31994ZM10.9374 4.3746C10.1855 4.34417 9.62941 3.79957 9.63317 3.05941C9.63693 2.29567 10.2142 1.7521 10.9445 1.75825C11.6934 1.7644 12.2399 2.32405 12.2433 3.0601C12.2443 3.80128 11.6886 4.34451 10.9374 4.3746Z" fill="#E05327"/>
</g>
<defs>
<clipPath id="clip0_141_152">
<rect width="14" height="14" fill="white"/>
</clipPath>
</defs>
</svg>
