<svg width="18" height="24" viewBox="0 0 18 24" fill="none" xmlns="http://www.w3.org/2000/svg">
<path d="M17.674 6.57597C16.2688 1.54456 10.8017 -1.25635 5.91169 0.551155C1.54671 2.16373 -0.97677 6.87086 0.357166 11.4918C0.884114 13.3174 1.73611 14.9856 2.74375 16.5819C4.05081 18.6537 5.58352 20.5512 7.24 22.3518C7.76195 22.9191 8.28827 23.4827 8.86148 24H9.14277C9.22215 23.9282 9.30404 23.8594 9.3803 23.7838C11.0822 22.1058 12.6445 20.2918 14.0516 18.3601C15.3718 16.5394 16.5363 14.6307 17.3202 12.5096C18.0378 10.5671 18.2384 8.59777 17.674 6.57597ZM8.99399 13.1287C6.7068 13.1081 4.85467 11.2381 4.87842 8.97327C4.89096 7.8771 5.33803 6.83067 6.12155 6.06358C6.90506 5.29648 7.96103 4.87138 9.05775 4.88155C11.3081 4.90154 13.1539 6.79714 13.1264 9.06012C13.0996 11.2987 11.2206 13.1481 8.99399 13.1287Z" fill="#E05327"/>
</svg>
