<svg width="18" height="18" viewBox="0 0 18 18" fill="none" xmlns="http://www.w3.org/2000/svg">
<g clip-path="url(#clip0_141_118)">
<path d="M1.76511 17.9705C1.76568 17.9758 1.76512 17.9812 1.76344 17.9863C1.76177 17.9914 1.75902 17.9961 1.7554 18H1.47504C1.56606 17.9345 1.66761 17.9749 1.76511 17.9705Z" fill="#454343"/>
<path d="M17.9664 7.83545V7.73115C17.9745 7.71255 17.9842 7.71255 17.9956 7.72872V7.83384C17.9858 7.84974 17.9761 7.85028 17.9664 7.83545Z" fill="#807D7D"/>
<path d="M17.9672 6.88579C17.9632 6.85709 17.9563 6.82717 17.9968 6.81706V6.887C17.9862 6.90398 17.9764 6.90358 17.9672 6.88579Z" fill="#8A8787"/>
<path d="M17.9672 6.88579C17.9771 6.88526 17.9869 6.88526 17.9968 6.88579V6.95573C17.986 6.97244 17.9761 6.97244 17.9672 6.95573V6.88579Z" fill="#737070"/>
<path d="M17.9668 6.95573H17.9964V7.02567C17.9644 7.01274 17.9612 6.98605 17.9668 6.95573Z" fill="#5E5B5B"/>
<path d="M17.9656 7.65999C17.9616 7.64636 17.9625 7.63174 17.9681 7.61868C17.9737 7.60562 17.9837 7.59492 17.9964 7.58844V7.65838C17.9861 7.67428 17.9759 7.67482 17.9656 7.65999Z" fill="#524F4F"/>
<path d="M17.9656 7.66H17.9964V7.72994L17.9672 7.73236C17.9667 7.70784 17.9661 7.68371 17.9656 7.66Z" fill="#656261"/>
<path d="M17.9664 7.83546H17.9964V7.9054C17.9523 7.8961 17.9628 7.86457 17.9664 7.83546Z" fill="#9F9C9C"/>
<path d="M18 6.6438C17.9887 6.63062 17.9824 6.61387 17.9822 6.59649C17.9608 5.71515 17.699 4.89405 17.3244 4.10892C16.887 3.19355 16.2601 2.38137 15.4853 1.72607C14.6495 1.01048 13.6988 0.521701 12.6425 0.222125C11.8778 0.00502419 11.0979 -0.00872162 10.3138 0.00219409C9.69373 0.015383 9.07901 0.120287 8.48968 0.313493C7.35246 0.678915 6.32077 1.31425 5.48292 2.16513C4.64506 3.01601 4.02598 4.0571 3.67867 5.19928C3.33682 6.33977 3.30041 7.49805 3.52858 8.66482C3.67665 9.42245 3.96146 10.1295 4.3296 10.8075C4.50195 11.1237 4.48819 11.1593 4.23372 11.414C3.08883 12.5584 1.94393 13.7029 0.799027 14.8476C0.598077 15.0431 0.42149 15.2622 0.273102 15.5001C2.489e-05 15.9513 -0.0748179 16.4514 0.0813415 16.9329C0.260561 17.4859 0.659455 17.868 1.26872 17.9694H1.47909C1.56688 17.929 1.65952 17.9618 1.74974 17.9517C1.9484 17.9563 2.1454 17.9145 2.32502 17.8296C2.63855 17.6848 2.89868 17.4706 3.13899 17.2312C4.30628 16.069 5.47181 14.9051 6.63559 13.7394C6.84434 13.5312 6.91878 13.5203 7.17324 13.6586C7.54028 13.864 7.92233 14.0415 8.31612 14.1894C9.14777 14.4894 10.0273 14.6351 10.9114 14.6191C11.5722 14.6109 12.2286 14.5092 12.8609 14.3171C14.0511 13.9533 15.0763 13.3169 15.9513 12.4275C16.8713 11.4924 17.4838 10.3927 17.8176 9.12853C17.9147 8.76023 17.9499 8.38546 18.0004 8.01149V7.87121C17.9757 7.84816 17.9847 7.81744 17.9826 7.79035C17.9806 7.76326 17.9826 7.73213 17.9826 7.70302C17.9826 7.68119 17.9826 7.65936 17.9826 7.63753C17.9826 7.60963 17.9762 7.57931 18.0004 7.55667V6.99431C17.9774 6.97329 17.9838 6.94539 17.9826 6.91952C17.9814 6.89364 17.9826 6.87909 17.9826 6.85928C17.9826 6.83947 17.9778 6.80511 18.0004 6.78408L18 6.6438ZM16.0764 7.54414C15.9695 10.5387 13.4504 12.7966 10.5558 12.6988C7.43216 12.5929 5.23784 10.0103 5.34221 7.16047C5.45589 4.05394 7.99773 1.92457 10.756 1.96015C13.9921 2.00543 16.2196 4.70525 16.0764 7.54414Z" fill="#E05327"/>
<path d="M11.0505 2.96341C11.6699 2.96789 12.2826 3.09142 12.8552 3.32727C13.2554 3.48898 13.4419 3.91268 13.2938 4.30362C13.2598 4.39556 13.208 4.47987 13.1412 4.55167C13.0745 4.62347 12.9941 4.68134 12.9049 4.72194C12.8156 4.76254 12.7192 4.78506 12.6212 4.7882C12.5231 4.79135 12.4255 4.77505 12.3338 4.74025C11.8078 4.5466 11.273 4.42693 10.7087 4.49768C9.5403 4.64484 8.68223 5.23873 8.14255 6.28543C8.03777 6.48757 7.94391 6.69578 7.72788 6.80857C7.59082 6.88177 7.43462 6.91129 7.28029 6.89315C7.12595 6.87501 6.98087 6.81008 6.86455 6.7071C6.7486 6.60281 6.66797 6.46507 6.63383 6.31295C6.59969 6.16084 6.61373 6.00188 6.674 5.8581C6.92433 5.259 7.29754 4.71899 7.76955 4.27289C8.42371 3.65099 9.24223 3.22903 10.1285 3.0568C10.4319 2.99454 10.7408 2.96325 11.0505 2.96341Z" fill="#EFA993"/>
</g>
<defs>
<clipPath id="clip0_141_118">
<rect width="18" height="18" fill="white"/>
</clipPath>
</defs>
</svg>
